<svg height="511pt" viewBox="1 -29 511.99939 511" width="511pt" xmlns="http://www.w3.org/2000/svg"><path d="m503.464844 393.03125c0-28.273438-110.792969-51.199219-247.464844-51.199219s-247.46875 22.925781-247.46875 51.199219c0 28.277344 110.796875 51.203125 247.46875 51.203125s247.464844-22.925781 247.464844-51.203125zm0 0" fill="#eef1eb"/><path d="m358.398438 68.765625-315.730469 119.46875v204.796875h426.664062v-213.332031c0-61.265625-49.664062-110.933594-110.933593-110.933594zm0 0" fill="#fae9c4"/><path d="m456.535156 269.300781c-11.78125 11.78125-30.878906 11.785157-42.664062.003907 0 0-.003906-.003907-.003906-.003907-11.78125-11.78125-30.878907-11.785156-42.660157-.007812-.003906.003906-.003906.003906-.007812.007812-11.777344 11.78125-30.878907 11.785157-42.660157.003907-.003906 0-.003906-.003907-.007812-.003907-11.777344-11.78125-30.878906-11.785156-42.660156-.007812 0 .003906-.003906.003906-.007813.007812-11.777343 11.78125-30.875 11.785157-42.660156.003907 0 0-.003906-.003907-.003906-.003907-11.78125-11.78125-30.878907-11.785156-42.660157-.007812-.003906.003906-.003906.003906-.007812.007812-11.777344 11.78125-30.878906 11.785157-42.660156.003907-.003906 0-.003906-.003907-.007813-.003907-11.777343-11.78125-30.878906-11.785156-42.660156-.007812 0 .003906-.003906.003906-.007813.007812-11.777343 11.78125-30.875 11.785157-42.660156.003907 0 0-.003906-.003907-.003906-.003907-7.828125-7.789062-19.296875-10.65625-29.867188-7.46875v42.035157c10.097657-3.230469 21.160157-.5625 28.671876 6.921874l2.363281 2.355469c11.117187 11.128907 29.152343 11.136719 40.28125.019531.007812-.007812.015625-.011718.019531-.019531l2.367188-2.355469c11.117187-11.128906 29.152343-11.136718 40.28125-.019531.007812.003907.011718.011719.019531.019531l2.363281 2.355469c11.121094 11.128907 29.15625 11.136719 40.28125.019531.007812-.007812.015625-.011718.023438-.019531l2.363281-2.355469c11.117187-11.128906 29.152343-11.136718 40.28125-.019531.007812.003907.015625.011719.019531.019531l2.363281 2.355469c11.121094 11.128907 29.15625 11.136719 40.285157.019531l.019531-.019531 2.363281-2.355469c11.117188-11.128906 29.152344-11.136718 40.28125-.019531.007812.003907.015625.011719.023438.019531l2.363281 2.355469c11.117187 11.128907 29.152343 11.136719 40.28125.019531.007812-.007812.015625-.011718.019531-.019531l2.363281-2.355469c11.121094-11.128906 29.15625-11.136718 40.285157-.019531.007812.003907.011718.011719.019531.019531l2.363281 2.355469c11.121094 11.128907 29.15625 11.136719 40.285156.019531.003906-.007812.011719-.011718.019532-.019531 3.835937-3.832031 8.695312-6.476562 13.992187-7.621093v-43.777344c-4.828125 1.402344-9.230469 4-12.792969 7.554687zm0 0" fill="#a97b56"/><g fill="#92543e"><path d="m213.324219 333.300781h17.066406v17.066407h-17.066406zm0 0"/><path d="m230.390625 350.367188h17.066406v17.066406h-17.066406zm0 0"/><path d="m383.992188 333.300781h17.066406v17.066407h-17.066406zm0 0"/><path d="m366.925781 350.367188h17.066407v17.066406h-17.066407zm0 0"/><path d="m102.390625 350.367188h17.066406v17.066406h-17.066406zm0 0"/><path d="m119.457031 333.300781h17.066407v17.066407h-17.066407zm0 0"/><path d="m170.660156 230.898438h17.066406v17.070312h-17.066406zm0 0"/><path d="m187.726562 213.832031h17.066407v17.066407h-17.066407zm0 0"/><path d="m332.792969 222.367188h17.066406v17.066406h-17.066406zm0 0"/><path d="m443.726562 222.367188h17.066407v17.066406h-17.066407zm0 0"/></g><path d="m358.398438 68.765625-315.730469 119.46875h51.199219l26.699218 26.699219c8.820313 8.8125 23.113282 8.8125 31.933594 0l26.699219-26.699219h42.667969l26.699218 26.699219c8.820313 8.8125 23.113282 8.8125 31.933594 0l26.699219-26.699219h42.667969l26.699218 26.699219c8.820313 8.8125 23.113282 8.8125 31.933594 0l26.699219-26.699219h34.132812v-8.535156c0-61.265625-49.664062-110.933594-110.933593-110.933594zm0 0" fill="#523434"/><path d="m298.65625 102.898438c0 28.277343-22.921875 51.203124-51.199219 51.203124-28.277343 0-51.199219-22.925781-51.199219-51.203124 0-28.277344 22.921876-51.199219 51.199219-51.199219 28.277344 0 51.199219 22.921875 51.199219 51.199219zm0 0" fill="#db514d"/><path d="m256 102.898438h-17.066406v-8.53125c-.046875-42.398438-34.40625-76.753907-76.800782-76.800782v-17.066406c51.816407.0625 93.804688 42.050781 93.867188 93.867188zm0 0" fill="#92543e"/><path d="m379.9375 93.238281c-5.230469-5.171875-11.726562-8.878906-18.839844-10.757812 3.828125-7.453125 5.828125-15.710938 5.835938-24.089844v-15.222656h-15.242188c-29.289062.007812-53.023437 23.753906-53.023437 53.042969v15.222656h2.925781l18.195312 18.191406c16.609376 16.613281 43.542969 16.613281 60.15625.003906 0-.003906 0-.003906 0-.003906l18.1875-18.191406zm0 0" fill="#abc8bc"/><path d="m213.332031 333.300781h17.066407v17.066407h-17.066407zm0 0"/><path d="m230.398438 350.367188h17.070312v17.066406h-17.070312zm0 0"/><path d="m384 333.300781h17.066406v17.066407h-17.066406zm0 0"/><path d="m366.933594 350.367188h17.066406v17.066406h-17.066406zm0 0"/><path d="m102.398438 350.367188h17.066406v17.066406h-17.066406zm0 0"/><path d="m119.464844 333.300781h17.070312v17.066407h-17.070312zm0 0"/><path d="m170.667969 230.898438h17.066406v17.070312h-17.066406zm0 0"/><path d="m187.734375 213.832031h17.066406v17.066407h-17.066406zm0 0"/><path d="m332.800781 222.367188h17.066407v17.066406h-17.066407zm0 0"/><path d="m443.734375 222.367188h17.066406v17.066406h-17.066406zm0 0"/><path d="m477.867188 361.203125v-181.503906c-.136719-59.390625-43.804688-109.695313-102.589844-118.175781.054687-1.050782.179687-2.074219.179687-3.132813v-15.222656c0-4.714844-3.820312-8.535157-8.53125-8.535157h-15.222656c-23.414063.035157-44.78125 13.34375-55.144531 34.339844-12.414063-18.113281-33.816406-27.898437-55.636719-25.429687-17.246094-26.800781-46.917969-43.011719-78.789063-43.042969v17.066406c24.121094.027344 46.824219 11.40625 61.277344 30.71875-28.703125 12.523438-42.769531 45.164063-32.160156 74.625l-151.605469 57.34375c-3.28125 1.273438-5.425781 4.457032-5.375 7.980469h-.136719v172.96875c-22.851562 8.941406-34.132812 19.371094-34.132812 31.828125 0 47.25 167.457031 59.734375 256 59.734375s256-12.484375 256-59.734375c0-12.457031-11.28125-22.886719-34.132812-31.828125zm-426.667969-92.160156c5.730469-.015625 11.234375 2.246093 15.292969 6.289062 15.121093 15.097657 39.609374 15.097657 54.734374 0 8.457032-8.429687 22.140626-8.429687 30.597657 0 15.121093 15.097657 39.613281 15.097657 54.734375 0 8.457031-8.429687 22.140625-8.429687 30.601562 0 15.121094 15.097657 39.609375 15.097657 54.730469 0 8.460937-8.429687 22.144531-8.429687 30.601563 0 15.105468 15.113281 39.601562 15.121094 54.714843.015625.007813-.003906.011719-.007812.015625-.015625 8.460938-8.429687 22.144532-8.429687 30.601563 0 14.445312 14.542969 37.761719 15.175781 52.976562 1.441407v22.613281c-4.285156 1.832031-8.183593 4.453125-11.496093 7.730469-7.800782 7.777343-20.425782 7.777343-28.226563 0l-2.375-2.378907c-14.476563-14.433593-37.898437-14.433593-52.375 0l-2.355469 2.363281c-7.804687 7.777344-20.425781 7.777344-28.230468 0l-2.371094-2.382812c-14.476563-14.429688-37.898438-14.429688-52.378906 0l-2.355469 2.367188c-7.800781 7.773437-20.425781 7.773437-28.226563 0l-2.371094-2.382813c-14.476562-14.429687-37.902343-14.429687-52.378906 0l-2.355468 2.363281c-7.800782 7.777344-20.425782 7.777344-28.226563 0l-2.375-2.378906c-14.476563-14.433594-37.898437-14.433594-52.375 0l-2.355469 2.363281c-7.804687 7.777344-20.425781 7.777344-28.230468 0l-2.371094-2.382812c-6.949219-6.914063-16.367188-10.773438-26.171875-10.726563zm409.601562-13.082031c-3.816406 1.851562-7.296875 4.320312-10.308593 7.304687-8.460938 8.429687-22.140626 8.429687-30.601563 0-15.105469-15.113281-39.601563-15.121094-54.714844-.015625-.007812.003906-.011719.011719-.015625.015625-8.460937 8.429687-22.144531 8.429687-30.601562 0-15.121094-15.097656-39.613282-15.097656-54.734375 0-8.457031 8.429687-22.140625 8.429687-30.597657 0-15.125-15.097656-39.613281-15.097656-54.734374 0-8.460938 8.429687-22.140626 8.429687-30.601563 0-15.121094-15.097656-39.609375-15.097656-54.730469 0-8.460937 8.429687-22.144531 8.429687-30.601562 0-7.261719-7.246094-17.101563-11.3125-27.359375-11.304687v-55.195313h39.132812l24.203125 24.203125c12.15625 12.132812 31.839844 12.132812 43.996094 0l24.199219-24.203125h35.601562l24.203125 24.203125c12.152344 12.132812 31.839844 12.132812 43.996094 0l24.199219-24.203125h35.601562l24.199219 24.203125c12.160156 12.128906 31.839844 12.128906 44 0l24.199219-24.203125h22.066406v59.195313zm-409.601562 55.066406c5.28125-.023438 10.351562 2.054687 14.097656 5.777344l2.371094 2.382812c14.476562 14.429688 37.902343 14.429688 52.378906 0l2.355469-2.367188c7.800781-7.773437 20.425781-7.773437 28.226562 0l2.375 2.382813c14.476563 14.429687 37.898438 14.429687 52.375 0l2.355469-2.363281c7.804687-7.777344 20.425781-7.777344 28.230469 0l2.371094 2.378906c14.476562 14.433594 37.902343 14.433594 52.378906 0l2.355468-2.363281c7.800782-7.777344 20.425782-7.777344 28.226563 0l2.371094 2.382812c14.476562 14.429688 37.902343 14.429688 52.378906 0l2.355469-2.363281c7.804687-7.777344 20.425781-7.777344 28.230468 0l2.371094 2.378906c14.269532 14.234375 37.3125 14.40625 51.796875.394532v64.851562h-409.601562zm322.695312-211.753906 12.171875 12.160156-12.171875 12.160156c-13.28125 13.261719-34.792969 13.261719-48.074219 0l-12.167968-12.160156 12.167968-12.160156c13.28125-13.261719 34.792969-13.261719 48.074219 0zm-22.191406-47.574219h6.695313v6.691406c0 4.921875-.824219 9.8125-2.4375 14.464844-15.527344-1.976563-31.097657 3.316406-42.199219 14.351562l-6.289063 6.28125c1.402344-23.421875 20.765625-41.71875 44.230469-41.789062zm-119.46875 11.46875c4.410156 9.808593 6.691406 20.441406 6.699219 31.199219v8.53125h17.066406v-8.53125c-.015625-11.609376-2.199219-23.113282-6.441406-33.921876 23.480468 1.207032 41.535156 21.222657 40.328125 44.703126-1.207031 23.480468-21.222657 41.539062-44.703125 40.332031-23.480469-1.207031-41.535156-21.222657-40.328125-44.703125.867187-16.859375 11.609375-31.609375 27.386719-37.609375zm-32.9375 74.921875c19.367187 26.613281 56.640625 32.488281 83.253906 13.121094 9.160157-6.667969 16.230469-15.804688 20.382813-26.347657l10.804687 10.796875c19.949219 19.910156 52.253907 19.910156 72.207031 0l18.203126-18.195312c3.332031-3.332032 3.332031-8.730469 0-12.0625l-18.1875-18.195313c-3.574219-3.480469-7.648438-6.40625-12.089844-8.6875 49.9375 7.722657 86.816406 50.652344 86.929687 101.179688h-25.601562c-2.261719 0-4.433594.898437-6.03125 2.5l-26.703125 26.703125c-5.492188 5.464844-14.371094 5.464844-19.863282 0l-26.703124-26.703125c-1.597657-1.601563-3.769532-2.5-6.03125-2.5h-42.667969c-2.261719 0-4.433594.898437-6.03125 2.5l-26.703125 26.703125c-5.492188 5.464844-14.371094 5.464844-19.863282 0l-26.703124-26.703125c-1.597657-1.601563-3.769532-2.5-6.03125-2.5h-42.667969c-2.261719 0-4.433594.898437-6.03125 2.5l-26.703125 26.703125c-5.492188 5.464844-14.371094 5.464844-19.863282 0l-26.699218-26.703125c-1.601563-1.601563-3.773438-2.5-6.035156-2.5h-4.53125zm56.703125 297.609375c-154.597656 0-238.933594-28.160157-238.933594-42.667969 0-2.199219 3.984375-7.320312 17.066406-13.328125v13.328125c0 4.714844 3.820313 8.535156 8.535157 8.535156h426.664062c4.714844 0 8.535157-3.820312 8.535157-8.535156v-13.328125c13.082031 5.972656 17.066406 11.09375 17.066406 13.328125 0 14.507812-84.335938 42.667969-238.933594 42.667969zm0 0"/></svg>