<?xml version="1.0" encoding="iso-8859-1"?>
<!-- Generator: Adobe Illustrator 21.0.0, SVG Export Plug-In . SVG Version: 6.00 Build 0)  -->
<svg xmlns="http://www.w3.org/2000/svg" xmlns:xlink="http://www.w3.org/1999/xlink" version="1.1" id="Capa_1" x="0px" y="0px" viewBox="0 0 512 512" style="enable-background:new 0 0 512 512;" xml:space="preserve" width="512" height="512">
<g id="XMLID_598_">
	<g id="XMLID_2227_">
		<g id="XMLID_2228_">
			<g id="XMLID_2229_">
				<g id="XMLID_2230_">
					<g id="XMLID_2231_">
						<g id="XMLID_2232_">
							<g id="XMLID_2233_">
								<g id="XMLID_2234_">
									<g id="XMLID_2235_">
										<g id="XMLID_2236_">
											<g id="XMLID_2240_">
												<g id="XMLID_2241_">
													<g id="XMLID_2242_">
														<g id="XMLID_2243_">
															<circle id="XMLID_2244_" style="fill:#008D44;" cx="256" cy="256" r="256"/>
														</g>
													</g>
												</g>
											</g>
										</g>
									</g>
								</g>
							</g>
						</g>
					</g>
				</g>
			</g>
		</g>
	</g>
	<path id="XMLID_896_" style="fill:#007631;" d="M511.832,264.837L371.438,124.443l-23.095,5.596l-77.069-76.669   c0,0-90.167,33.321-90.167,72.501c0,12.113,4.387,21.328,11.662,28.281l11.057,10.902L88.597,192.971v172.038H63.895v30   l99.847,99.847C192.367,505.919,223.472,512,256,512C394.426,512,507.172,402.128,511.832,264.837z"/>
	<g id="XMLID_69_">
		<polygon id="XMLID_1590_" style="fill:#FFEE93;" points="423.403,366.385 423.403,192.971 371.438,124.443 88.597,192.971     88.597,366.385   "/>
		<polygon id="XMLID_742_" style="fill:#FFE767;" points="423.4,192.973 423.4,366.383 256,366.383 256,152.413 371.44,124.443       "/>
		<g id="XMLID_1889_">
			<g id="XMLID_290_">
				<rect id="XMLID_387_" x="63.895" y="365.008" style="fill:#FF9B00;" width="384.209" height="30"/>
			</g>
			<g id="XMLID_288_">
				<rect id="XMLID_289_" x="256" y="365.008" style="fill:#FF7600;" width="192.102" height="30"/>
			</g>
		</g>
		<polygon id="XMLID_287_" style="fill:#FFE031;" points="88.597,192.971 423.403,192.971 371.438,124.443   "/>
		<polygon id="XMLID_738_" style="fill:#FFD000;" points="423.4,192.973 256,192.973 256,152.413 371.44,124.443   "/>
		<g id="XMLID_648_">
			<rect id="XMLID_649_" x="88.597" y="262.713" style="fill:#FFFFFF;" width="334.806" height="30"/>
		</g>
		<g id="XMLID_703_">
			<rect id="XMLID_734_" x="256" y="262.713" style="fill:#FFF5CA;" width="167.4" height="30"/>
		</g>
		<path id="XMLID_1888_" style="fill:#FFFFFF;" d="M271.274,53.369c0,0-90.168,33.321-90.168,72.501s45.865,48.062,87.003,48.062    c41.138,0,69.606-21.791,61.359-51.423C321.245,92.968,263.066,109.985,271.274,53.369z"/>
		<path id="XMLID_1887_" style="fill:#FFF5CA;" d="M321.642,155.269c-10.753,11.584-30.084,18.659-53.532,18.659    c-4.008,0-8.052-0.086-12.109,0.123V60.119c9.103-4.461,15.274-6.746,15.274-6.746c-8.211,56.612,49.977,39.59,58.188,69.136    C333.005,135.254,329.767,146.545,321.642,155.269z"/>
	</g>
</g>















</svg>
