<svg enable-background="new 0 0 140 140" height="512" viewBox="0 0 140 140" width="512" xmlns="http://www.w3.org/2000/svg"><circle cx="70" cy="70" fill="#e05b49" r="64"/><path d="m45.6218948 106.9183044c.210022.2399902.4400024.4700317.6799927.6799927l26.4401245 26.3323364c33.1887817-1.4003906 59.8300095-28.0680542 61.1906662-61.2672119l-39.7307663-39.7951088h-.0100098c-1.2399902-1.2999859-2.9799805-2.1199932-4.9299927-2.1199932h-38.5300292c-3.75 0-6.789978 3.0399761-6.789978 6.7999859v64.9100342c0 1.6900024.6199951 3.2299805 1.6400146 4.4099731v.0100098z" opacity=".1"/><path d="m89.2653427 30.749054h-38.5307007c-3.7537231 0-6.7966919 3.0429688-6.7966919 6.7966919v64.9085083c0 3.7537231 3.0429688 6.7966919 6.7966919 6.7966919h38.5307007c3.7537231 0 6.7966919-3.0429688 6.7966919-6.7966919v-64.9085084c0-3.7537231-3.0429687-6.7966918-6.7966919-6.7966918z" fill="#2f4859"/><path d="m50.7342148 107.250885c-2.6445312 0-4.7958984-2.1518555-4.7958984-4.796875v-64.9082031c0-2.6450195 2.1513672-4.796875 4.7958984-4.796875h38.53125c2.6445312 0 4.796875 2.1518555 4.796875 4.796875v64.9082031c0 2.6450195-2.1523438 4.796875-4.796875 4.796875z" fill="#3a556a"/><path d="m45.938316 42.599552h48.124023v54.800709h-48.124023z" fill="#27a2db"/><g fill="#2f4859"><path d="m63.443684 36.237618h13.113294v2.55668h-13.113294z"/><path d="m81.5857849 36.2375793c-.7059937 0-1.2783203.5723267-1.2783203 1.2783813 0 .7059937.5723267 1.2783203 1.2783203 1.2783203.7060547 0 1.2783813-.5723267 1.2783813-1.2783203.0000001-.7060546-.5723266-1.2783813-1.2783813-1.2783813z"/><path d="m73.3229294 100.2745132h-6.6452026c-.3902588 0-.706604.3163452-.706604.706604v2.7192993c0 .3902588.3163452.706604.706604.706604h6.6452026c.3902588 0 .706604-.3163452.706604-.706604v-2.7192993c0-.3902587-.3163452-.706604-.706604-.706604z"/></g><path d="m66.593582 60.563549h6.812378v9.268004h-6.812378z" fill="#f7be56"/><path d="m75.4909363 86.3702164v-17.9439926l-1.0942764-.599289-4.3968812.8698349-4.3968811-.8698349-.1881713.1030502v18.4402314z" fill="#d5d6db"/><path d="m81.3255386 72.0601196c-.5237198-.5763245-1.1399994-1.0621948-1.8236008-1.4366074l-4.3876038-2.404129-.7172623-.3933487-.4185791.0820465c-.288147 2.3073883-1.3966141 10.1634369-3.9753494 17.8049545-2.5787125-7.6394119-3.6892929-15.4933777-3.9774399-17.8028488l-.4227905-.0841522-.7067261.3870239-4.4002228 2.4104538c-.6835976.3744125-1.2998772.8602829-1.8215179 1.4366074-1.1715775 1.2893372-1.8194122 2.9678345-1.8194122 4.7094116v8.2769775c0 1.3775864 1.1167526 2.494339 2.4943352 2.494339h21.3012505c1.3775787 0 2.4943314-1.1167526 2.4943314-2.494339v-8.2769775c0-1.7415771-.6478272-3.4200744-1.8194123-4.7094116z" fill="#d5d6db"/><path d="m71.8282318 70.3025742-.9130554-1.581482-.9153977-.0243225-.9107284.0243225-.9130783 1.581482.8949585 1.5501022-.8949585 13.385849 1.8261261 1.9878158 1.8261337-1.8615264-.8951874-13.5117188z" fill="#44c4a1"/><path d="m73.4059601 66.0872879-3.406189 2.6094818 2.831192 3.6532822 1.5656891-4.5231095z" fill="#ebf0f3"/><path d="m66.5935822 66.0872879 3.4061889 2.6094818-2.8311844 3.6532822-1.5656891-4.5231095z" fill="#ebf0f3"/><g fill="#fcd462"><ellipse cx="75.203" cy="59.415" rx="1.677" ry=".804" transform="matrix(.114 -.993 .993 .114 7.605 127.357)"/><ellipse cx="64.707" cy="59.415" rx=".804" ry="1.677" transform="matrix(.993 -.114 .114 .993 -6.35 7.761)"/><path d="m74.9965363 60.3986168-.2007599-5.9260979-.7026749-1.9107475-4.1064453-1.1076813-4.1064529 1.1076813-.7026672 1.9107475-.2007675 5.9260979s-.2342224 1.4399872.3011475 2.4922829 1.0372696 1.5328217 1.7399445 2.2340927c.7026672.7012634 1.6211853.9187088 2.9687958.9622955 1.3476105-.0435867 2.2661209-.2610321 2.9687958-.9622955.7026672-.7012711 1.2045746-1.181797 1.7399445-2.2340927.535362-1.0522957.3011396-2.4922829.3011396-2.4922829z"/></g><path d="m74.8587112 59.4152031s.6363525-2.9232216.7070541-3.8517723c.0707092-.9285507-.3535233-2.2010117-.3535233-2.2010117s-.5656433-2.304184-2.2625656-3.1639557c-1.6969299-.8597679-4.4190826-.4814682-6.2220688.2407379-1.8029785.7222061-2.3686218 3.817379-2.2979202 4.9522743.0707092 1.1348991.7070541 4.0237274.7070541 4.0237274h.1247406s-.4782639-4.0237274.3348465-4.5739784c.8131104-.5502548 1.8660812-1.031723 3.7966003-.8253784 1.9305267.2063446 4.5466156-.1375656 4.5466156-.1375656s.4606781 2.0908279.7788544 2.503521c.1987457.2577896-.0014114 2.2314873-.0458984 3.0334015z" fill="#2f4859"/></svg>